<svg width="56" height="56" viewBox="0 0 56 56" fill="none" xmlns="http://www.w3.org/2000/svg">
<path d="M39.5736 4.85138C42.6406 4.86054 45.5794 6.08298 47.7482 8.25171C49.9169 10.4204 51.1394 13.3592 51.1485 16.4263V39.5736C51.1394 42.6406 49.9169 45.5794 47.7482 47.7482C45.5794 49.9169 42.6406 51.1394 39.5736 51.1485H16.4263C13.3592 51.1394 10.4204 49.9169 8.25171 47.7482C6.08298 45.5794 4.86054 42.6406 4.85138 39.5736V16.4263C4.86054 13.3592 6.08298 10.4204 8.25171 8.25171C10.4204 6.08298 13.3592 4.86054 16.4263 4.85138H39.5736ZM39.5736 0.222168H16.4263C7.51383 0.222168 0.222168 7.51383 0.222168 16.4263V39.5736C0.222168 48.4861 7.51383 55.7777 16.4263 55.7777H39.5736C48.4861 55.7777 55.7777 48.4861 55.7777 39.5736V16.4263C55.7777 7.51383 48.4861 0.222168 39.5736 0.222168Z" fill="black"/>
<path d="M43.0459 16.4255C42.3591 16.4255 41.6878 16.2219 41.1168 15.8403C40.5458 15.4588 40.1007 14.9165 39.8379 14.282C39.5751 13.6476 39.5064 12.9494 39.6404 12.2759C39.7743 11.6023 40.105 10.9837 40.5906 10.4981C41.0762 10.0125 41.6949 9.68176 42.3685 9.54778C43.042 9.41381 43.7402 9.48257 44.3746 9.74537C45.0091 10.0082 45.5514 10.4532 45.9329 11.0242C46.3144 11.5952 46.5181 12.2665 46.5181 12.9533C46.5191 13.4095 46.4299 13.8615 46.2558 14.2832C46.0816 14.7049 45.8259 15.0881 45.5033 15.4107C45.1807 15.7333 44.7975 15.9891 44.3758 16.1632C43.9541 16.3373 43.5021 16.4265 43.0459 16.4255V16.4255ZM28 18.7395C29.8314 18.7395 31.6216 19.2826 33.1444 20.3C34.6671 21.3175 35.854 22.7637 36.5548 24.4556C37.2556 26.1476 37.439 28.0094 37.0817 29.8056C36.7244 31.6018 35.8425 33.2518 34.5476 34.5467C33.2526 35.8417 31.6026 36.7236 29.8064 37.0809C28.0102 37.4382 26.1484 37.2548 24.4565 36.554C22.7645 35.8531 21.3183 34.6663 20.3008 33.1436C19.2834 31.6208 18.7403 29.8306 18.7403 27.9992C18.7429 25.5442 19.7193 23.1905 21.4553 21.4545C23.1913 19.7185 25.545 18.7421 28 18.7395V18.7395ZM28 14.1103C25.253 14.1103 22.5677 14.9248 20.2837 16.451C17.9997 17.9771 16.2195 20.1463 15.1683 22.6841C14.1171 25.222 13.8421 28.0146 14.378 30.7088C14.9139 33.4029 16.2367 35.8777 18.1791 37.8201C20.1214 39.7625 22.5962 41.0853 25.2904 41.6212C27.9846 42.1571 30.7772 41.882 33.315 40.8308C35.8529 39.7796 38.022 37.9994 39.5482 35.7154C41.0743 33.4314 41.8889 30.7461 41.8889 27.9992C41.8889 24.3156 40.4256 20.7829 37.8209 18.1782C35.2162 15.5736 31.6835 14.1103 28 14.1103V14.1103Z" fill="black"/>
</svg>
