<svg width="580" height="326" viewBox="0 0 580 326" fill="none" xmlns="http://www.w3.org/2000/svg">
<path fill-rule="evenodd" clip-rule="evenodd" d="M0 0H580V326H0V0ZM267 226L315 197.5L267 169V226ZM161.448 136.328C166.536 136.28 170.376 134.408 172.968 131.432L174.36 133.88C170.568 136.376 165.864 137.624 161.4 137.624C151.8 137.624 141 131.768 141 120.248C141 108.584 151.8 102.776 161.4 102.776C165.864 102.776 170.568 104.024 174.36 106.52L172.968 108.968C170.328 105.848 166.44 103.88 161.4 103.928C151.368 104.024 146.04 111.464 145.992 119.96C145.992 128.648 151.512 136.376 161.448 136.328ZM201.785 134.216L191.321 111.608H190.457L178.649 137H176.969L192.665 103.352L203.609 126.728L214.457 103.4L230.153 137H224.921L213.113 111.608H212.297L201.785 134.216ZM251.072 137.624C241.472 137.624 230.672 131.768 230.672 120.248C230.672 108.584 241.472 102.776 251.072 102.776C260.672 102.776 271.52 108.584 271.52 120.248C271.52 131.768 260.672 137.624 251.072 137.624ZM251.072 103.928C241.04 104.024 235.712 111.464 235.664 119.96C235.664 128.648 241.184 136.376 251.12 136.328C261.152 136.28 266.48 128.888 266.576 120.392C266.528 111.704 261.008 103.832 251.072 103.928ZM270.984 104.84L271.8 103.4H304.104L303.288 104.84H289.8L289.704 137H285.384V104.84H270.984ZM312.3 113H330.06C333.18 113 333.42 112.376 333.42 109.16C333.42 106.04 333.18 104.84 330.06 104.84H312.3V113ZM338.7 109.16C338.7 113.384 335.244 114.44 331.02 114.44H312.3V137H307.5V103.4H331.02C335.244 103.4 338.7 104.936 338.7 109.16ZM372.526 104.84H348.862V113H367.775L366.958 114.44H348.862V135.56H375.263L374.447 137H344.062V103.4H373.342L372.526 104.84ZM373.359 104.84L374.175 103.4H406.479L405.663 104.84H392.175L392.079 137H387.759V104.84H373.359ZM410.344 103.4H415.144V122.6H431.224C436.744 122.6 439.144 125.096 439.144 129.8C439.144 135.368 436.504 137 429.064 137H410.344V103.4ZM428.584 124.04H415.144V135.56H428.584C433.048 135.56 434.344 134.312 434.344 129.8C434.344 125.336 433.048 124.04 428.584 124.04Z" fill="#FF4040"/>
</svg>
