<svg width="40" height="31" viewBox="0 0 40 31" fill="none" xmlns="http://www.w3.org/2000/svg">
<path d="M35 0H5C3.67435 0.00139872 2.40341 0.521449 1.46603 1.44604C0.528658 2.37063 0.00141806 3.62425 0 4.93182V26.0682C0.00141806 27.3758 0.528658 28.6294 1.46603 29.554C2.40341 30.4786 3.67435 30.9986 5 31H35C36.3256 30.9986 37.5966 30.4786 38.534 29.554C39.4713 28.6294 39.9986 27.3758 40 26.0682V4.93182C39.9986 3.62425 39.4713 2.37063 38.534 1.44604C37.5966 0.521449 36.3256 0.00139872 35 0ZM33.7339 8.15776L20.8768 18.0214C20.6261 18.2136 20.3176 18.318 20 18.318C19.6824 18.318 19.3739 18.2136 19.1232 18.0214L6.26607 8.15776C6.11501 8.04523 5.98813 7.90422 5.8928 7.74292C5.79747 7.58161 5.73559 7.40322 5.71076 7.21812C5.68593 7.03302 5.69864 6.8449 5.74816 6.66469C5.79767 6.48448 5.88301 6.31577 5.9992 6.16837C6.11539 6.02097 6.26012 5.89781 6.42498 5.80606C6.58984 5.71431 6.77155 5.65579 6.95954 5.6339C7.14753 5.61202 7.33805 5.6272 7.52004 5.67858C7.70203 5.72995 7.87185 5.81648 8.01964 5.93315L20 15.1239L31.9804 5.93315C32.2799 5.71001 32.6565 5.61214 33.0287 5.66071C33.4008 5.70928 33.7386 5.90039 33.9691 6.19271C34.1995 6.48503 34.304 6.85506 34.26 7.22279C34.216 7.59052 34.027 7.92638 33.7339 8.15776Z" fill="black"/>
</svg>
