<svg width="57" height="56" viewBox="0 0 57 56" fill="none" xmlns="http://www.w3.org/2000/svg">
<path d="M52.7802 0.00573379C52.0762 0.0617505 51.3853 0.242381 50.7343 0.540579H50.7255C50.1005 0.8116 47.1293 2.17869 42.6121 4.25092L26.4248 11.7076C14.8094 17.056 3.39147 22.323 3.39147 22.323L3.52742 22.2654C3.52742 22.2654 2.7402 22.5484 1.9179 23.1648C1.40989 23.5184 0.97274 23.981 0.632912 24.5247C0.229435 25.1723 -0.0951013 26.1628 0.0255034 27.1869C0.222856 28.9186 1.24909 29.9571 1.98588 30.5303C2.73143 31.1107 3.4419 31.3818 3.4419 31.3818H3.45945L14.1669 35.3272C14.6472 37.0132 17.4298 47.0194 18.0987 49.3243C18.4934 50.701 18.8771 51.562 19.3573 52.2192C19.5898 52.555 19.8617 52.8356 20.1884 53.061C20.3583 53.1691 20.5394 53.2544 20.7278 53.3153L20.6182 53.2865C20.6511 53.2961 20.6774 53.3248 20.7015 53.3344C20.7892 53.3608 20.8484 53.3704 20.9603 53.3896C22.6553 53.9508 24.0171 52.7996 24.0171 52.7996L24.0938 52.7324L30.4157 46.4366L41.0113 55.3275L41.2525 55.4402C43.4607 56.5003 45.6974 55.9103 46.8793 54.8694C48.07 53.8213 48.5327 52.4806 48.5327 52.4806L48.6094 52.2647L56.7974 6.38551C57.0298 5.25346 57.089 4.19336 56.8325 3.16444C56.5679 2.12311 55.9571 1.2275 55.1199 0.653305C54.4169 0.18589 53.6018 -0.0397197 52.7802 0.00573379ZM52.5587 4.92248C52.5499 5.07358 52.5762 5.05679 52.5148 5.347V5.37338L44.4036 50.7753C44.3685 50.8401 44.3093 50.9816 44.1471 51.1231C43.976 51.2718 43.8401 51.3653 43.1274 51.0559L30.1679 40.1887L22.3396 47.9932L23.9842 36.5048L45.1579 14.9191C46.0307 14.0316 45.739 13.8446 45.739 13.8446C45.8004 12.7557 44.4212 13.5256 44.4212 13.5256L17.7215 31.6168L17.7127 31.5688L4.91547 26.856V26.8464L4.88258 26.8392C4.90501 26.831 4.92698 26.8214 4.94836 26.8104L5.01854 26.772L5.08651 26.7456C5.08651 26.7456 16.5133 21.4787 28.1286 16.1303C33.9439 13.4512 39.8031 10.753 44.3093 8.6712C48.8156 6.60137 52.1464 5.08317 52.335 5.00163C52.5148 4.92488 52.4293 4.92488 52.5587 4.92488V4.92248Z" fill="black"/>
</svg>
