<svg width="46" height="56" viewBox="0 0 46 56" fill="none" xmlns="http://www.w3.org/2000/svg">
<path d="M40.2716 11.9764C39.9134 11.7811 39.5646 11.5669 39.2267 11.3348C38.2441 10.6493 37.3431 9.84168 36.5433 8.92922C34.542 6.51318 33.7946 4.06213 33.5193 2.34605H33.5304C33.3004 0.921621 33.3955 0 33.4099 0H24.2948V37.1891C24.2948 37.6884 24.2948 38.1819 24.2749 38.6696C24.2749 38.7302 24.2694 38.7862 24.266 38.8516C24.266 38.8784 24.266 38.9064 24.2605 38.9344V38.9554C24.1644 40.2897 23.759 41.5787 23.08 42.7089C22.401 43.8392 21.4691 44.776 20.3664 45.4371C19.2171 46.1269 17.9172 46.4888 16.595 46.487C12.3481 46.487 8.90621 42.8332 8.90621 38.3208C8.90621 33.8083 12.3481 30.1545 16.595 30.1545C17.3989 30.1537 18.1978 30.2872 18.9622 30.55L18.9732 20.7575C16.6529 20.4412 14.2956 20.6358 12.05 21.3289C9.80448 22.022 7.71945 23.1987 5.92646 24.7846C4.35539 26.2249 3.03459 27.9434 2.02348 29.8628C1.63871 30.5628 0.18698 33.3755 0.0111803 37.9404C-0.0993857 40.5315 0.638089 43.2158 0.989689 44.3253V44.3486C1.21082 45.0019 2.06771 47.2313 3.46416 49.1107C4.5902 50.6183 5.92059 51.9426 7.41247 53.041V53.0177L7.43458 53.041C11.8473 56.2049 16.7398 55.9972 16.7398 55.9972C17.5868 55.961 20.4239 55.9972 23.6458 54.3861C27.2193 52.6 29.2537 49.939 29.2537 49.939C30.5534 48.349 31.5868 46.537 32.3097 44.5808C33.1345 42.2931 33.4099 39.5492 33.4099 38.4526V18.7229C33.5204 18.7929 34.9932 19.8207 34.9932 19.8207C34.9932 19.8207 37.1149 21.2556 40.4253 22.1901C42.8002 22.855 46 22.995 46 22.995V13.4475C44.8789 13.5758 42.6023 13.2025 40.2716 11.9764Z" fill="black"/>
</svg>
