<svg width="56" height="37" viewBox="0 0 56 37" fill="none" xmlns="http://www.w3.org/2000/svg">
<path d="M55.6402 8.16965C55.6402 3.83383 52.0194 0.345902 47.5454 0.345902C41.4853 0.0963512 35.3048 0 28.9887 0H27.0197C20.7189 0 14.5275 0.0963514 8.46736 0.346865C4.0043 0.346865 0.383526 3.85406 0.383526 8.18988C0.110054 11.619 -0.00589813 15.0491 0.000665202 18.4793C-0.0102737 21.9094 0.1137 25.3427 0.372587 28.7792C0.372587 33.1151 3.99336 36.6319 8.45642 36.6319C14.8228 36.892 21.3534 37.0077 27.9933 36.998C34.6441 37.0173 41.1564 36.8953 47.5301 36.6319C52.0041 36.6319 55.6249 33.1151 55.6249 28.7792C55.8874 25.3395 56.0077 21.9094 55.9968 18.4696C56.0216 15.0395 55.9027 11.6062 55.6402 8.16965ZM22.6441 27.9314V8.99827L38.5055 18.46L22.6441 27.9314Z" fill="black"/>
</svg>
